<?xml version="1.0" encoding="utf-8"?>
<!-- Generator: Adobe Illustrator 19.0.0, SVG Export Plug-In . SVG Version: 6.00 Build 0)  -->
<svg version="1.1" id="Capa_1" xmlns="http://www.w3.org/2000/svg" xmlns:xlink="http://www.w3.org/1999/xlink" x="0px" y="0px"
	 viewBox="-74 142.7 810 277.3" style="enable-background:new -74 142.7 810 277.3;" xml:space="preserve">
<style type="text/css">
	.st0{fill:#F7B617;}
	.st1{fill:#FFFFFF;}
</style>
<path class="st0" d="M1.5,294.8c2,1.1,2,2.5,2,3.7v5.3c0,0.9-0.7,1.8-1.6,1.8c-0.5,0-0.9-0.4-1.2-0.4l-66.5-34.9
	c-1.8-0.9-2.8-1.9-2.8-3.4v-5.3c0-1.2,0.5-2.7,2.1-3.4l67.2-35.1c0.4-0.2,0.9-0.4,1.4-0.4c0.7,0,1.4,0.5,1.4,1.6v5.1
	c0,1.1-0.5,2.7-2.1,3.4L-58,264.1L1.5,294.8z"/>
<path class="st0" d="M720.2,263.9l-59.6-31c-1.6-0.7-2.1-2.3-2.1-3.4v-5.1c0-1.1,0.7-1.6,1.4-1.6c0.5,0,0.9,0.2,1.4,0.4l67.2,35.1
	c1.6,0.7,2.1,2.1,2.1,3.4v5.3c0,1.4-0.9,2.5-2.8,3.4l-66.5,34.9c-0.5,0-0.7,0.4-1.2,0.4c-1.1,0-1.6-0.9-1.6-1.8v-5.3
	c0-1.2,0-2.7,1.9-3.7L720.2,263.9z"/>
<g>
	<path class="st1" d="M28.3,188h8c0.9,0,1.6,0.5,1.6,1.5v95.1c0,7.9,1.8,10.6,8.4,10.6h2c1.6,0,1.6,1.1,1.6,2.2v6.4
		c0,1.1-0.7,1.6-1.6,1.8c-1.8,0.2-3.5,0.2-4.4,0.2c-14.4,0-17.2-7.7-17.2-20.1v-96C26.8,188.8,27.2,188,28.3,188"/>
	<path class="st1" d="M165.5,305.4c-9.5,0-17.4-3.7-21.4-8.6l-0.4,0.2v6c0,1.1-0.4,1.5-1.6,1.5H135c-1.1,0-1.6-0.2-1.6-1.3V189.7
		c0-1.1,0.5-1.6,1.6-1.6h8.2c1.1,0,1.3,0.5,1.3,1.5V232l0.5,0.2c4-4.4,12.1-8.2,21.6-8.2c21,0,28.7,15,28.7,30.3v21.9
		C195.3,293.2,184.9,305.4,165.5,305.4 M184.2,254c0-11.2-5.7-20.7-19.7-20.7c-11.7,0-19.9,9.3-19.9,20.5v22.3
		c0,11.2,8.2,19.9,19.7,19.9c13.7,0,19.9-8.4,19.9-20.1V254z"/>
	<path class="st1" d="M238.4,305.6c-19.7,0-31.1-11.1-31.1-30v-22.1c0-17.9,11.3-29.8,30.9-29.8c19.4,0,30.9,11.2,30.9,29.8v21.9
		C269.2,294.6,257.5,305.6,238.4,305.6 M258.2,253.7c0-11.7-6.6-20.3-19.7-20.3c-11.9,0-19.9,8.4-19.9,20.1v22.1
		c0,12.1,6.2,20.5,19.7,20.5s19.7-8.2,19.9-20.7V253.7z"/>
	<path class="st1" d="M385.5,206c0-0.7,0.4-1.5,1.5-1.8l7.7-1.8c1.3-0.4,1.8,0.5,1.8,1.5v19.7h20.1c0.9,0,1.5,0.4,1.5,1.5v6.4
		c0,1.1-0.4,1.6-1.5,1.6h-20.1v48.5c0,9.1,2.7,13.7,10.8,13.7c3.8,0,8.4-0.5,11.2-1.3c2-0.4,2.6,0.5,2.7,1.6l1.1,5.7
		c0.2,1.5,0,1.8-1.5,2.4c-3.7,1.5-10.8,2-15.2,2c-15.7,0-20.1-9.3-20.1-21.9V206z"/>
	<path class="st1" d="M461.1,305.6c-19.7,0-31.1-11.1-31.1-30v-22.1c0-17.9,11.3-29.8,30.9-29.8c19.4,0,30.9,11.2,30.9,29.8v21.9
		C491.8,294.6,480.1,305.6,461.1,305.6 M480.9,253.7c0-11.7-6.6-20.3-19.7-20.3c-11.9,0-19.9,8.4-19.9,20.1v22.1
		c0,12.1,6.2,20.5,19.7,20.5s19.7-8.2,19.9-20.7V253.7z"/>
	<path class="st1" d="M558.1,208c-4,0-7.3-3.1-7.3-7.5c0-4,3.3-7.1,7.3-7.1c4.2,0,7.5,3.1,7.5,7.1S562.2,208,558.1,208 M552.3,225
		c0-1.1,0.5-1.5,1.5-1.5h8.2c1.1,0,1.6,0.5,1.6,1.5v78.2c0,0.9-0.4,1.3-1.5,1.3h-8.2c-0.9,0-1.6-0.4-1.6-1.3V225z"/>
	<path class="st1" d="M93.1,223.5H78.8c-0.7,0-1.2,0.5-1.2,1.2v7.3c0,0.7,0.5,1.2,1.2,1.2H92c13.7,0,18.1,7.1,18.1,17v7.9l-0.7,0.4
		c-4.4-4.9-12.1-7.7-18.6-7.7c-18.6,0-28.7,12.3-28.7,27.6c0,16.1,9.7,27.2,27.2,27.2c8,0,16.1-2.6,20.8-9l0.9,0.2v6.4
		c0,0.5,0.2,1.3,1.3,1.3h7.5c0.9,0,1.5-0.6,1.5-1.6v-51.2C121.2,234.1,113.9,223.5,93.1,223.5 M90.9,296.3c-12.8,0-18.5-8-18.5-18.3
		c0-10.1,6.9-18.3,18.6-18.3c11.9,0,18.3,8.2,18.3,18.1C109.3,288,101.8,296.3,90.9,296.3"/>
	<path class="st1" d="M345.2,223.5h-14.3c-0.7,0-1.2,0.5-1.2,1.2v7.3c0,0.7,0.5,1.2,1.2,1.2h13.2c13.7,0,18.1,7.1,18.1,17v7.9
		l-0.7,0.4c-4.4-4.9-12.1-7.7-18.6-7.7c-18.6,0-28.7,12.3-28.7,27.6c0,16.1,9.7,27.2,27.2,27.2c8,0,16.1-2.6,20.8-9l0.9,0.2v6.4
		c0,0.5,0.2,1.3,1.3,1.3h7.5c0.9,0,1.5-0.6,1.5-1.6v-51.2C373.3,234.1,366,223.5,345.2,223.5 M343,296.3c-12.8,0-18.5-8-18.5-18.3
		c0-10.1,6.9-18.3,18.6-18.3c11.9,0,18.3,8.2,18.3,18.1C361.5,288,354,296.3,343,296.3"/>
	<path class="st1" d="M607,223.5h-14.3c-0.7,0-1.2,0.5-1.2,1.2v7.3c0,0.7,0.5,1.2,1.2,1.2h13.2c13.7,0,18.1,7.1,18.1,17v7.9
		l-0.7,0.4c-4.4-4.9-12.1-7.7-18.6-7.7c-18.6,0-28.7,12.3-28.7,27.6c0,16.1,9.7,27.2,27.2,27.2c8,0,16.1-2.6,20.8-9l0.9,0.2v6.4
		c0,0.5,0.2,1.3,1.3,1.3h7.5c0.9,0,1.5-0.6,1.5-1.6v-51.2C635.1,234.1,627.8,223.5,607,223.5 M604.8,296.3c-12.8,0-18.5-8-18.5-18.3
		c0-10.1,6.9-18.3,18.6-18.3c11.9,0,18.3,8.2,18.3,18.1C623.2,288,615.7,296.3,604.8,296.3"/>
	<path class="st1" d="M311.5,233.3c-13.2,0-19,11.6-19,24V303c0,1.1-0.4,1.5-1.5,1.5h-8.2c-0.9,0-1.6-0.4-1.6-1.3v-77
		c0-1.1,0.5-1.5,1.5-1.5h7.1c1.1,0,1.5,0.6,1.5,1.5v10.1h0.5c4.4-7.1,13-12.8,22.1-12.8h2.6c0.7,0,1.2,0.5,1.2,1.2v7.4
		c0,0.7-0.5,1.2-1.2,1.2L311.5,233.3z"/>
	<path class="st1" d="M534.2,233.3c-13.2,0-19,11.6-19,24V303c0,1.1-0.4,1.5-1.5,1.5h-8.2c-0.9,0-1.6-0.4-1.6-1.3v-77
		c0-1.1,0.5-1.5,1.5-1.5h7.1c1.1,0,1.5,0.6,1.5,1.5v10.1h0.5c4.4-7.1,13-12.8,22.1-12.8h2.6c0.7,0,1.2,0.5,1.2,1.2v7.4
		c0,0.7-0.5,1.2-1.2,1.2L534.2,233.3z"/>
</g>
<g>
	<path class="st1" d="M91.5,339.2c6,0,9,3.5,9,3.5l-1.7,2.5c0,0-2.7-3-7.2-3c-5.4,0-9.6,4-9.6,9.9c0,5.8,4.3,9.9,9.7,9.9
		c5,0,7.9-3.5,7.9-3.5l1.5,2.6c0,0-3.3,3.9-9.6,3.9c-7.3,0-12.9-5.2-12.9-12.9C78.5,344.6,84.2,339.2,91.5,339.2z"/>
	<path class="st1" d="M118.3,339.2c7.2,0,13,5.5,13,12.8c0,7.4-5.8,13-13,13s-13-5.6-13-13C105.3,344.7,111.1,339.2,118.3,339.2z
		 M118.3,362c5.3,0,9.6-4.3,9.6-10c0-5.6-4.3-9.7-9.6-9.7s-9.6,4.2-9.6,9.7C108.7,357.7,113,362,118.3,362z M120.1,330h3.9l-4.2,5.8
		h-3L120.1,330z"/>
	<path class="st1" d="M147,339.2c6,0,8,4.6,8,4.6h0.1c0,0-0.1-0.8-0.1-1.9v-12h3.3v34.4h-3.2v-2.6c0-1.1,0.1-1.8,0.1-1.8h-0.1
		c0,0-2,4.9-8.5,4.9c-6.6,0-10.7-5.3-10.7-12.9C135.9,344.3,140.5,339.2,147,339.2z M147.1,362c4.1,0,8-2.9,8-9.9
		c0-5-2.5-9.9-7.8-9.9c-4.4,0-7.9,3.7-7.9,9.9C139.4,358.2,142.5,362,147.1,362z"/>
	<path class="st1" d="M166.3,330h3.5v4.2h-3.5V330z M166.4,339.8h3.3v24.6h-3.3V339.8z"/>
	<path class="st1" d="M186.2,371.7c4.8,0,8.6-2.3,8.6-7.7v-2.3c0-0.9,0.1-1.8,0.1-1.8h-0.1c-1.5,2.7-4,4.3-7.8,4.3
		c-6.6,0-11-5.2-11-12.6s4.1-12.4,10.7-12.4c6.5,0,8.1,4.1,8.1,4.1h0.1c0,0,0-0.3,0-0.8v-2.7h3.2v24c0,7.8-5.8,10.9-11.8,10.9
		c-2.8,0-5.7-0.7-8.1-2l1.3-2.7C179.6,370,182.6,371.7,186.2,371.7z M194.9,351.7c0-7.2-3.4-9.4-7.8-9.4c-4.8,0-7.6,3.5-7.6,9.3
		c0,5.8,3.2,9.7,8.1,9.7C191.5,361.3,194.9,358.9,194.9,351.7z"/>
	<path class="st1" d="M217.4,339.2c7.2,0,13,5.5,13,12.8c0,7.4-5.8,13-13,13s-13-5.6-13-13C204.4,344.7,210.2,339.2,217.4,339.2z
		 M217.4,362c5.3,0,9.6-4.3,9.6-10c0-5.6-4.3-9.7-9.6-9.7s-9.6,4.2-9.6,9.7C207.8,357.7,212.1,362,217.4,362z"/>
	<path class="st1" d="M259.2,339.2c6,0,8.1,4.7,8.1,4.7h0.1c0,0,0-0.8,0-1.9v-2.3h3.2v34.4h-3.3v-11.8c0-1.3,0.1-2.2,0.1-2.2h-0.1
		c0,0-2.1,4.8-8.4,4.8c-6.6,0-10.7-5.3-10.7-12.9C248.2,344.3,252.8,339.2,259.2,339.2z M259.4,362c4.1,0,8-2.9,8-9.9
		c0-5-2.5-9.9-7.8-9.9c-4.4,0-7.9,3.7-7.9,9.9C251.6,358.2,254.8,362,259.4,362z"/>
	<path class="st1" d="M278.3,339.8h3.3v14.8c0,3.9,0.6,7.3,5.3,7.3c5.6,0,9.1-4.9,9.1-10.3v-11.8h3.3v24.6h-3.2v-3.7
		c0-1.1,0.1-2,0.1-2h-0.1c-1,2.4-4.2,6.2-9.6,6.2c-5.8,0-8.2-3.1-8.2-9.5L278.3,339.8L278.3,339.8z"/>
	<path class="st1" d="M317.8,339.2c6.8,0,10.3,5.2,10.3,11.4c0,0.6-0.1,1.7-0.1,1.7h-18.9c0.1,6.3,4.5,9.7,9.5,9.7
		c4.5,0,7.5-3,7.5-3l1.5,2.5c0,0-3.6,3.4-9.1,3.4c-7.3,0-12.9-5.3-12.9-12.9C305.7,344.1,311.2,339.2,317.8,339.2z M324.7,349.6
		c-0.2-5.1-3.3-7.5-7-7.5c-4.1,0-7.7,2.6-8.5,7.5H324.7z"/>
	<path class="st1" d="M348.5,342.9h-3.2v-2.8h3.3V333h3.3v7.1h6.2v2.8h-6.2v12.2c0,5.8,3.7,6.5,5.5,6.5c0.7,0,1.1-0.1,1.1-0.1v3
		c0,0-0.5,0.1-1.4,0.1c-2.8,0-8.6-0.9-8.6-9.2L348.5,342.9L348.5,342.9z"/>
	<path class="st1" d="M364,339.8h3.3v4.4c0,1.1-0.1,2-0.1,2h0.1c1.2-3.7,3.9-6.6,7.8-6.6c0.7,0,1.3,0.1,1.3,0.1v3.3
		c0,0-0.6-0.1-1.2-0.1c-3.5,0-6.1,2.7-7.1,6.4c-0.5,1.6-0.7,3.2-0.7,4.8v10.4H364V339.8z"/>
	<path class="st1" d="M394.5,349.2h1.4v-0.6c0-4.7-2.6-6.4-6.1-6.4c-4.1,0-6.9,2.3-6.9,2.3l-1.6-2.5c0,0,3.2-2.8,8.8-2.8
		c5.9,0,9.2,3.3,9.2,9.4v15.8H396v-2.7c0-1.2,0.1-2.1,0.1-2.1H396c0,0-2.1,5.3-8.2,5.3c-4.1,0-8.4-2.4-8.4-7.3
		C379.4,349.4,390.2,349.2,394.5,349.2z M388.3,362.2c4.7,0,7.5-4.9,7.5-9.2v-1.1h-1.4c-3.9,0-11.6,0.1-11.6,5.6
		C382.8,359.8,384.7,362.2,388.3,362.2z"/>
	<path class="st1" d="M406.9,339.8h3.3v3.7c0,1.1-0.1,2-0.1,2h0.1c0.9-2.3,4-6.2,9.8-6.2c6.1,0,8.2,3.5,8.2,9.5v15.7h-3.3v-14.8
		c0-3.9-0.6-7.3-5.3-7.3c-4.2,0-7.8,2.9-9,6.9c-0.3,1-0.4,2.2-0.4,3.3v11.8h-3.3L406.9,339.8L406.9,339.8z"/>
	<path class="st1" d="M435.7,359c0,0,2.7,3,7.3,3c2.6,0,4.9-1.3,4.9-3.9c0-5.4-13.3-4.1-13.3-12.1c0-4.4,4-6.8,8.4-6.8
		c5.2,0,7.6,2.7,7.6,2.7l-1.5,2.5c0,0-2.1-2.3-6.2-2.3c-2.5,0-4.9,1.1-4.9,3.8c0,5.4,13.3,4,13.3,12.1c0,4-3.5,6.9-8.4,6.9
		c-6,0-9.1-3.6-9.1-3.6L435.7,359z"/>
	<path class="st1" d="M458.7,342.9h-3.1v-2.8h3.1v-1.2c0-8.1,5.7-9.2,8.5-9.2c0.9,0,1.5,0.1,1.5,0.1v3c0,0-0.5-0.1-1.2-0.1
		c-1.9,0-5.5,0.7-5.5,6.2v1.2h6.3v2.8H462v21.5h-3.3V342.9z"/>
	<path class="st1" d="M484.2,339.2c7.2,0,13,5.5,13,12.8c0,7.4-5.8,13-13,13s-13-5.6-13-13C471.2,344.7,477,339.2,484.2,339.2z
		 M484.2,362c5.3,0,9.6-4.3,9.6-10c0-5.6-4.3-9.7-9.6-9.7s-9.6,4.2-9.6,9.7C474.6,357.7,478.9,362,484.2,362z"/>
	<path class="st1" d="M503.5,339.8h3.3v4.4c0,1.1-0.1,2-0.1,2h0.1c1.2-3.7,3.9-6.6,7.8-6.6c0.7,0,1.3,0.1,1.3,0.1v3.3
		c0,0-0.6-0.1-1.2-0.1c-3.5,0-6.1,2.7-7.1,6.4c-0.5,1.6-0.7,3.2-0.7,4.8v10.4h-3.3L503.5,339.8L503.5,339.8z"/>
	<path class="st1" d="M520.9,339.8h3.3v3.7c0,1.1-0.1,2-0.1,2h0.1c1.2-3.3,5.1-6.2,8.9-6.2c4.6,0,6.9,2.1,7.6,6.2h0.1
		c1.3-3.3,4.9-6.2,9.1-6.2c6,0,8.2,3.5,8.2,9.5v15.7h-3.3v-14.8c0-4-0.8-7.3-5.3-7.3c-3.8,0-6.9,3.3-7.8,6.9
		c-0.3,1.1-0.4,2.3-0.4,3.6v11.6H538v-14.8c0-3.7-0.5-7.3-5.2-7.3c-4,0-7,3.5-8.1,7.2c-0.2,1-0.3,2.2-0.3,3.3v11.6h-3.3v-24.7H520.9
		z"/>
	<path class="st1" d="M578.8,349.2h1.4v-0.6c0-4.7-2.6-6.4-6.1-6.4c-4.1,0-6.9,2.3-6.9,2.3l-1.6-2.5c0,0,3.2-2.8,8.8-2.8
		c5.9,0,9.2,3.3,9.2,9.4v15.8h-3.2v-2.7c0-1.2,0.1-2.1,0.1-2.1h-0.1c0,0-2.1,5.3-8.2,5.3c-4.1,0-8.4-2.4-8.4-7.3
		C563.7,349.4,574.5,349.2,578.8,349.2z M572.6,362.2c4.7,0,7.5-4.9,7.5-9.2v-1.1h-1.4c-3.9,0-11.6,0.1-11.6,5.6
		C567.1,359.8,568.9,362.2,572.6,362.2z"/>
</g>
</svg>
